<svg xmlns="http://www.w3.org/2000/svg" viewBox="0 0 512 512">
  <defs>
    <linearGradient id="bg" x1="0" x2="1" y1="0" y2="1">
      <stop offset="0" stop-color="#047857" />
      <stop offset="1" stop-color="#0f172a" />
    </linearGradient>
  </defs>
  <rect width="512" height="512" rx="120" fill="url(#bg)" />
  <path
    d="M198 140c0-32 26-58 58-58s58 26 58 58h-36c0-12-10-22-22-22s-22 10-22 22z"
    fill="#d1fae5"
  />
  <path
    d="M138 178l62-26 30 34h52l30-34 62 26v67l-40 18-14 165H192l-14-165-40-18z"
    fill="#ecfeff"
  />
  <path d="M178 263l40-18h76l40 18-10 120H188z" fill="#bae6fd" opacity="0.55" />
</svg>
